<svg width="1359" height="300" viewBox="0 0 1359 300" fill="none" xmlns="http://www.w3.org/2000/svg">
<path d="M79.9043 27.6669C18.8815 58.3346 3.19444 99.7985 35.1961 146.269C38.6473 151.276 49.1576 163.012 58.413 172.556C95.4345 210.421 102.494 232.796 88.3753 267.845C85.3948 275.355 83.5123 281.301 84.2967 280.988C84.9242 280.675 91.6696 275.355 99.0426 268.94C116.141 254.389 128.221 239.994 135.437 225.286C140.3 215.585 141.241 211.829 141.868 200.72C143.123 178.502 135.593 162.542 111.278 135.004C86.1791 106.37 80.3749 94.4786 80.3749 70.852C80.3749 53.4841 82.8849 45.1913 92.6109 28.9186C95.5914 24.0681 97.4739 20 96.6895 20C96.062 20 88.5322 23.4423 79.9043 27.6669Z" fill="#FCC103"/>
<path d="M100.06 34.5938C97.2688 39.2814 93.702 47.719 91.9961 53.1878C84.2422 78.188 91.2207 99.282 116.654 127.72C130.456 142.876 141.777 159.595 146.429 171.626C149.531 179.127 149.996 183.658 150.151 198.033V215.377L143.172 229.596C135.108 246.002 135.263 246.002 154.338 230.377C185.974 204.596 195.124 171.939 179.616 140.064C172.792 125.845 161.937 113.345 140.071 94.1257C113.707 71.1567 107.814 61.7816 106.108 39.2814L105.178 26L100.06 34.5938Z" fill="#FCC103"/>
<path d="M398.333 150V203.333H407.666C415.4 203.333 417 202.933 417 201.2C417 199.6 417.8 199.2 420.066 199.867C440.066 205.6 450.6 206.133 463.933 202C474.333 198.8 482.466 192.133 487.266 182.8C490.333 177.067 490.866 174.267 490.866 165.333C491 156 490.466 153.733 487 147.6C480.733 136 471.8 130 457 127.333C445.533 125.2 435.266 126.933 419.4 133.333C417.133 134.267 417 132.8 417 115.467V96.6668H407.666H398.333V150ZM461.933 147.467C467.266 150.8 471.666 158.8 471.666 165.333C471.666 183.2 452.6 193.2 430.733 186.667C427 185.6 422.466 183.467 420.466 181.867C417 179.067 416.866 178.8 417.266 165.733L417.666 152.267L424.733 148.4C436.466 141.733 451.933 141.333 461.933 147.467Z" fill="black"/>
<path d="M624.2 98.5332C613.534 103.2 618.067 116.667 630.334 116.667C642.334 116.667 647 103.867 636.867 98.6665C632.334 96.2665 629.534 96.2665 624.2 98.5332Z" fill="black"/>
<path d="M833.534 98.5332C826.734 101.6 825.667 108.133 831 113.333C837.934 120.267 851.667 115.867 851.667 106.8C851.667 98.9332 842.2 94.5332 833.534 98.5332Z" fill="black"/>
<path d="M986.333 150V203.333H995.666H1004.87L1005.27 193.867C1005.67 184.533 1005.8 184.133 1010.73 180.267L1015.8 176.133L1029.4 189.733L1043 203.333L1057 203.2H1071L1050.73 183.6C1039.53 172.8 1030.33 163.6 1030.33 163.2C1030.33 162.8 1039.13 154.667 1049.8 145.2L1069.13 128L1055 127.6L1041 127.2L1023.27 143.333L1005.67 159.467L1005.27 128.133L1005 96.6666H995.666H986.333V150Z" fill="black"/>
<path d="M226.067 150.933C213.8 177.2 203.4 199.733 202.867 200.933C202.2 203.067 203.133 203.333 212.2 203.333H222.333L226.6 194.667L230.867 186L260.333 186.267L289.667 186.667L293.533 194.933L297.533 203.333H307.933C313.667 203.333 318.333 203.2 318.333 202.933C318.333 202.667 307.667 180.267 294.467 153.2L270.733 104L259.533 103.6L248.333 103.333L226.067 150.933ZM270.733 146.8C276.467 158.933 280.867 169.2 280.6 169.467C280.333 169.867 270.733 169.867 259.267 169.733L238.467 169.333L248.733 146.933C254.333 134.667 259.267 124.667 259.667 124.667C260.067 124.667 265 134.667 270.733 146.8Z" fill="black"/>
<path d="M733 153.333V203.333H772.333H811.667V194.667V186H782.333H753V144.667V103.333H743H733V153.333Z" fill="black"/>
<path d="M675.666 116V127.333H667H658.333V134.667V142H667H675.666V172.667V203.333H685H694.333V172.667V142H703.666H713V134.667V127.333H703.666H694.333V116V104.667H685H675.666V116Z" fill="black"/>
<path d="M368.867 129.2C364.733 130.8 359.533 133.467 357.267 135.067C355.133 136.667 352.867 138 352.467 138C352.067 138 351.667 135.6 351.667 132.667V127.333H342.333H333V165.333V203.333H342.333H351.667V180.533V157.733L356.067 153.733C361 149.067 369.533 145.067 377.133 143.867C380.067 143.333 382.733 142.533 383.133 141.867C384.2 140.133 379.4 126 377.8 126C377 126 373 127.467 368.867 129.2Z" fill="black"/>
<path d="M539.667 127.867C530.067 130 522.734 133.867 516.867 140.267C510.067 147.333 507.4 153.2 506.6 162.8C504.6 188.133 524.867 204.667 557.934 204.667C569.4 204.667 579.667 202.933 587.134 199.867L591.534 198L588.734 191.733C587.267 188.133 585.8 185.067 585.667 184.933C585.4 184.667 580.6 185.467 574.867 186.667C561.934 189.6 548.067 188.8 539.267 184.667C533.4 181.867 527.667 176.533 527.667 173.867C527.667 173.2 543.934 172.667 563.8 172.667H600.067L599.267 165.333C597.267 145.467 583.534 131.2 563 127.467C553.4 125.733 549.134 125.733 539.667 127.867ZM570.734 147.2C573.134 148.667 576.067 151.6 577.4 153.867L579.8 158H553.8C539.4 158 527.667 157.467 527.667 156.8C527.667 154.667 533.267 148.533 537.267 146.533C546.467 141.733 562.467 142.133 570.734 147.2Z" fill="black"/>
<path d="M909.666 127.867C906.066 128.8 900.733 130.533 898.066 131.733L893 133.867V130.533C893 127.467 892.733 127.333 883.666 127.333H874.333V165.333V203.333H883.666H893L893.266 177.067L893.666 150.8L901 146.933C913.933 140.4 929.8 142.133 937.266 151.067C942.066 156.8 943.666 165.733 943.666 186V203.333H953.133H962.6L962.066 179.6C961.666 164.8 960.733 154.267 959.666 151.333C955.533 140.267 947.8 132.533 937.266 128.933C929.933 126.4 916.866 125.867 909.666 127.867Z" fill="black"/>
<path d="M1117 127.2C1096.07 131.067 1082.2 146.133 1082.2 165.067C1082.2 184.8 1094.73 198.667 1117 203.467C1131 206.4 1162.73 202.8 1165.67 197.867C1166.07 197.333 1165.13 193.867 1163.67 190.267L1160.87 183.867L1151.27 186.4C1139.93 189.333 1124.87 188.933 1116.07 185.333C1112.87 184.133 1108.47 180.933 1106.07 178.133L1101.8 173.333L1138.07 172.933L1174.33 172.667V166.267C1174.33 144.8 1156.73 128.4 1131.93 126.8C1127 126.4 1120.33 126.667 1117 127.2ZM1144.2 146.4C1149.4 149.333 1155.4 156 1154.07 157.333C1153.67 157.733 1141.8 157.867 1127.67 157.733L1101.93 157.333L1105.8 152.8C1111.27 146.267 1118.6 143.333 1129.67 143.333C1136.87 143.333 1140.2 144 1144.2 146.4Z" fill="black"/>
<path d="M1233.67 128.267C1230.73 129.467 1225.4 132.133 1221.93 134.267C1218.47 136.267 1215.27 138 1215 138C1214.6 138 1214.33 135.6 1214.33 132.667V127.333H1205H1195.67V165.333V203.333H1205H1214.33V180.8V158.267L1219.53 153.6C1224.73 148.933 1237.27 143.333 1242.87 143.333C1244.47 143.333 1246.2 143.067 1246.6 142.667C1247.93 141.333 1242.73 126.667 1240.87 126.4C1239.8 126.267 1236.6 127.067 1233.67 128.267Z" fill="black"/>
<path d="M1286.33 127.733C1270.07 131.467 1261 140.667 1261 153.467C1261 161.333 1264.47 167.6 1270.6 170.933C1274.33 172.933 1278.33 173.333 1298.07 173.333C1319.4 173.333 1321.4 173.467 1323.13 175.867C1325.67 179.333 1325.53 179.867 1322.07 184C1315.4 191.467 1291.27 191.6 1273 184.267L1265.13 181.067L1261.13 187.867L1257.27 194.667L1263.53 197.467C1281.53 205.733 1311.93 207.067 1326.33 200.4C1339.67 194.133 1344.33 187.333 1343.4 175.067C1342.73 165.2 1338.33 160.133 1327.8 157.067C1321.53 155.333 1318.33 155.2 1304.87 156.533C1287.93 158.267 1283 157.733 1280.87 153.867C1275.53 143.867 1298.47 138.533 1320.33 144.533C1325.4 146 1329.67 147.067 1329.8 146.933C1329.8 146.8 1331.13 143.467 1332.73 139.733L1335.53 132.667L1330.6 131.467C1312.6 126.667 1296.87 125.333 1286.33 127.733Z" fill="black"/>
<path d="M621 165.333V203.333H630.333H639.667V165.333V127.333H630.333H621V165.333Z" fill="black"/>
<path d="M830.333 165.333V203.333H839.666H849V165.333V127.333H839.666H830.333V165.333Z" fill="black"/>
<path d="M16.9754 151.42C14.9396 158.481 14 166.328 14 178.568C14 194.574 14.3132 196.614 18.8546 206.187C22.6129 214.033 26.2147 218.584 34.3578 225.802C63.3285 251.067 69.4359 258.443 72.4113 273.037L73.664 279L78.9884 265.661C88.2277 241.652 86.9749 223.762 74.1338 204.931C71.3151 200.851 61.4494 189.553 52.3666 180.137C43.1273 170.565 32.322 158.324 28.2505 152.675C24.1789 147.026 20.5771 142.318 20.2639 142.004C20.1073 141.847 18.5414 146.084 16.9754 151.42Z" fill="#FCC103"/>
</svg>
